<svg width="91" height="90" viewBox="0 0 91 90" fill="none" xmlns="http://www.w3.org/2000/svg">
<path fill-rule="evenodd" clip-rule="evenodd" d="M41.0258 0.229459C32.2722 1.20288 24.0877 4.58643 17.4416 9.97918C15.6694 11.4173 12.6438 14.4068 11.1881 16.1581C9.15835 18.6001 6.98557 21.839 5.82411 24.1545L5.43159 24.9369L6.16445 25.5647C10.1348 28.9668 13.6992 32.9633 18.181 39.0377C26.2092 49.9188 31.2724 58.3566 36.0752 68.8585L36.881 70.6203L38.2166 66.5605C43.1638 51.5228 49.4562 39.44 59.8325 25.0541C64.5176 18.5585 68.1027 14.3138 71.4812 11.2627L73.2377 9.67645L72.6776 9.21793C71.4309 8.19747 67.9002 5.96675 65.9477 4.96605C61.4476 2.6595 57.2038 1.29802 51.87 0.449452C50.0198 0.155004 42.9791 0.0122231 41.0258 0.229459ZM73.2944 11.5243C67.3829 18.306 61.6338 28.251 57.5528 38.7549C52.8679 50.8127 49.6227 65.0288 48.0838 80.2344C47.7992 83.0467 47.3156 89.1221 47.3248 89.7701C47.3319 90.2727 47.5725 89.7251 47.6949 88.9275C47.9289 87.4026 49.2202 81.7806 49.9837 78.9627C53.8133 64.8275 59.813 51.9833 68.4436 39.4443C73.8498 31.5898 78.5154 25.8708 82.4206 22.3115L83.6238 21.2149L82.724 19.8741C81.1541 17.5349 79.4956 15.5328 77.2914 13.3155C76.114 12.1313 74.9359 11.0113 74.673 10.8267L74.1953 10.4907L73.2944 11.5243ZM83.6441 22.8558C76.7836 31.0872 71.5228 40.8337 67.5523 52.6674C65.4535 58.9229 63.9384 64.8709 62.5694 72.2288C61.7388 76.6938 60.4312 86.7699 60.5429 87.8462L60.5908 88.3089L62.4108 87.5676C71.5211 83.8568 79.4144 76.9564 84.3982 68.3462C91.3291 56.3719 92.422 41.6211 87.3398 28.6438C86.4157 26.2843 84.5177 22.4177 84.2496 22.3486C84.1668 22.3273 83.8944 22.5556 83.6441 22.8558ZM4.57953 26.6745C3.11761 29.5892 1.60747 34.8205 0.959095 39.2145C0.532153 42.1089 0.573861 49.1746 1.03538 52.1434C3.33556 66.9384 12.3303 79.4362 25.4425 86.0558C27.8197 87.256 30.2625 88.2841 30.402 88.1433C30.4983 88.0458 29.1978 80.3986 28.5976 77.533C24.3155 57.0902 16.9335 40.3589 6.85847 28.2608C6.1919 27.4604 5.473 26.6431 5.26112 26.4447L4.87573 26.0839L4.57953 26.6745Z" fill="#7F7F7F"/>
</svg>
