<svg width="91" height="91" viewBox="0 0 91 91" fill="none" xmlns="http://www.w3.org/2000/svg">
<path fill-rule="evenodd" clip-rule="evenodd" d="M41.0258 1.22946C32.2722 2.20288 24.0877 5.58643 17.4416 10.9792C15.6694 12.4173 12.6438 15.4068 11.1881 17.1581C9.15835 19.6001 6.98557 22.839 5.82411 25.1545L5.43159 25.9369L6.16445 26.5647C10.1348 29.9668 13.6992 33.9633 18.181 40.0377C26.2092 50.9188 31.2724 59.3566 36.0752 69.8585L36.881 71.6203L38.2166 67.5605C43.1638 52.5228 49.4562 40.44 59.8325 26.0541C64.5176 19.5585 68.1027 15.3138 71.4812 12.2627L73.2377 10.6765L72.6776 10.2179C71.4309 9.19747 67.9002 6.96675 65.9477 5.96605C61.4476 3.6595 57.2038 2.29802 51.87 1.44945C50.0198 1.155 42.9791 1.01222 41.0258 1.22946ZM73.2944 12.5243C67.3829 19.306 61.6338 29.251 57.5528 39.7549C52.8679 51.8127 49.6227 66.0288 48.0838 81.2344C47.7992 84.0467 47.3156 90.1221 47.3248 90.7701C47.3319 91.2727 47.5725 90.7251 47.6949 89.9275C47.9289 88.4026 49.2202 82.7806 49.9837 79.9627C53.8133 65.8275 59.813 52.9833 68.4436 40.4443C73.8498 32.5898 78.5154 26.8708 82.4206 23.3115L83.6238 22.2149L82.724 20.8741C81.1541 18.5349 79.4956 16.5328 77.2914 14.3155C76.114 13.1313 74.9359 12.0113 74.673 11.8267L74.1953 11.4907L73.2944 12.5243ZM83.6441 23.8558C76.7836 32.0872 71.5228 41.8337 67.5523 53.6674C65.4535 59.9229 63.9384 65.8709 62.5694 73.2288C61.7388 77.6938 60.4312 87.7699 60.5429 88.8462L60.5908 89.3089L62.4108 88.5676C71.5211 84.8568 79.4144 77.9564 84.3982 69.3462C91.3291 57.3719 92.422 42.6211 87.3398 29.6438C86.4157 27.2843 84.5177 23.4177 84.2496 23.3486C84.1668 23.3273 83.8944 23.5556 83.6441 23.8558ZM4.57953 27.6745C3.11761 30.5892 1.60747 35.8205 0.959095 40.2145C0.532153 43.1089 0.573861 50.1746 1.03538 53.1434C3.33556 67.9384 12.3303 80.4362 25.4425 87.0558C27.8197 88.256 30.2625 89.2841 30.402 89.1433C30.4983 89.0458 29.1978 81.3986 28.5976 78.533C24.3155 58.0902 16.9335 41.3589 6.85847 29.2608C6.1919 28.4604 5.473 27.6431 5.26112 27.4447L4.87573 27.0839L4.57953 27.6745Z" stroke="#7F7F7F" stroke-width="2"/>
</svg>
